<?xml version="1.0" encoding="UTF-8"?> <svg xmlns="http://www.w3.org/2000/svg" data-name="Layer 1" viewBox="0 0 250 250"><path d="M90.24 46c1-.49 2-1 2.93-1.43l1.49-.68.74-.32c1-.45-.82.33-.12 0 2.09-.83 4.17-1.62 6.31-2.31a90.09 90.09 0 0113-3.16l1.61-.25.81-.11c-.14 0-1.45.18-.38.06s2.16-.25 3.24-.35c2.23-.19 4.47-.31 6.71-.34s4.49 0 6.73.14c1.08.06 2.17.14 3.25.24l1.62.17.81.09h.42.21l.8.12 1.61.26c1.14.19 2.27.41 3.4.65 2.13.44 4.24 1 6.33 1.56s4.41 1.36 6.57 2.17c.95.35 1.89.73 2.84 1.11.76.31-1.06-.46-.31-.13l.75.33c.56.24 1.11.5 1.66.76a83.1 83.1 0 0111.27 6.35c.84.56 1.66 1.13 2.47 1.72.41.29.81.59 1.21.89.2.15.4.32.6.46-.46-.32-.87-.69-.17-.14q2.43 1.92 4.73 4a90.24 90.24 0 018.47 8.8c.65.77 1.28 1.55 1.9 2.34.91 1.16-.68-.9.21.28.34.45.68.9 1 1.36a89.32 89.32 0 013.48 5.15 92.9 92.9 0 015.81 10.76c.21.45.41.91.61 1.37a4.65 4.65 0 00.3.69c-.64-.89-.36-.88-.16-.39.42 1 .84 2.09 1.23 3.15q1 2.82 1.91 5.71a87.68 87.68 0 012.68 12.1c0 .25.07.5.11.74 0-.1-.19-1.51-.07-.47l.18 1.49a85.79 85.79 0 01.48 9.51c-.01 2.11-.1 4.1-.26 6.14-.08 1-.18 2-.29 3.06-.06.5-.18 1-.19 1.53 0-.12.22-1.5.06-.46 0 .32-.09.64-.14.95a91.75 91.75 0 01-2.82 12.36q-.92 3-2 6c-.37 1-.78 1.9-1.14 2.86 0-.12.57-1.32.15-.37l-.23.53c-.23.53-.47 1.05-.71 1.58a93.61 93.61 0 01-6.09 11.12q-1.71 2.67-3.6 5.22c-.12.16-1.13 1.58-.58.77s-.47.59-.6.75c-.68.85-1.38 1.69-2.09 2.51a87.12 87.12 0 01-9 9c-.72.63-1.46 1.24-2.21 1.85-.16.12-1.48 1.24-.75.6s0 0-.16.12l-.77.57a6.55 6.55 0 00-2.76 3.59 6.16 6.16 0 00.61 4.62c1.6 2.49 5.51 4.15 8.21 2.15a97.84 97.84 0 0033.11-43.88 93.73 93.73 0 004-53.51 98.13 98.13 0 00-25.13-46.5 92.93 92.93 0 00-48-26.46c-18.86-3.87-38.92-2.39-56.74 5-2.49 1-4.94 2.13-7.34 3.36A6 6 0 0082 43.89 6.13 6.13 0 0090.24 46zM56.45 56.84a96.46 96.46 0 00-26 42.48 94.3 94.3 0 00-1.29 49.42 97.78 97.78 0 0023.12 42.61 93.47 93.47 0 0042.37 26.1 97.19 97.19 0 0051.3.87c2-.51 3.93-1.1 5.86-1.74 3-1 5.23-4.18 4.19-7.38-1-3-4.19-5.26-7.38-4.2a86.31 86.31 0 01-11.62 3c-.94.17-1.87.33-2.81.48-.47.07-.95.12-1.41.2.14 0 1.45-.18.38-.05l-.81.1q-3 .34-6.09.49a92.58 92.58 0 01-12-.24c-1-.08-1.9-.17-2.84-.28a5.53 5.53 0 01-1.42-.18s1.27.19.59.08l-1-.15q-3-.47-6-1.14A90.88 90.88 0 0192.23 204c-.89-.33-1.78-.67-2.66-1-.36-.14-1.95-.94-.45-.18-.48-.24-1-.43-1.49-.65q-2.68-1.22-5.3-2.61a84.09 84.09 0 01-10-6.23l-1.07-.79c-.16-.12-.3-.24-.46-.35 1.21.83.58.46.31.24-.75-.6-1.5-1.19-2.23-1.81q-2.21-1.84-4.27-3.82a89.42 89.42 0 01-7.61-8.27l-.84-1c-.85-1.09.51.68-.11-.15s-1.15-1.53-1.7-2.31q-1.6-2.26-3.08-4.62a91.24 91.24 0 01-5.37-9.92c-.4-.86-.76-1.76-1.17-2.62l.23.56-.21-.54a85.063 85.063 0 01-2.47-6.83 85.53 85.53 0 01-2.71-10.93c-.16-.88-.31-1.76-.44-2.64 0-.26-.07-.51-.11-.76-.1-.68.09.68.09.65a9.84 9.84 0 00-.18-1.52q-.31-2.93-.44-5.86a87.16 87.16 0 01.33-11.65c.08-.92.2-1.83.3-2.75.08-.68-.09.65-.09.62.05-.26.08-.52.12-.79q.11-.78.24-1.56.48-2.93 1.15-5.82a93.59 93.59 0 013.29-11c.32-.87.65-1.73 1-2.59.14-.35.91-2 .15-.39.23-.47.42-1 .64-1.45q1.17-2.62 2.51-5.16a90.29 90.29 0 016.08-10c.53-.75 1.07-1.5 1.62-2.24.16-.21.34-.41.48-.63l-.33.44 1-1.24c1.25-1.53 2.55-3 3.9-4.47s2.66-2.75 4.05-4.06a6.06 6.06 0 000-8.49 6.13 6.13 0 00-8.48 0z"></path><path d="M92.6 41.62a54.3 54.3 0 013.06-9.8l-.6 1.43a54 54 0 015.48-9.86 6 6 0 00-2.15-8.21 6.15 6.15 0 00-8.21 2.15A57.72 57.72 0 0081 38.43c-.65 3.06.9 6.63 4.19 7.38 3 .68 6.69-.91 7.38-4.19z"></path><path d="M83.05 48.06l19.32 8.52a6.54 6.54 0 004.63.61 6.12 6.12 0 003.58-2.76 6 6 0 00.61-4.62 5.86 5.86 0 00-2.76-3.59L89.1 37.7a6.51 6.51 0 00-4.62-.61 6 6 0 00-4.19 7.38 5.82 5.82 0 002.76 3.59zM127 200.52l18.82 14.55a6.58 6.58 0 004.25 1.76 6.13 6.13 0 004.24-1.76 6 6 0 001.76-4.24 5.79 5.79 0 00-1.76-4.24L135.44 192a6.58 6.58 0 00-4.24-1.76A6.1 6.1 0 00127 192a6 6 0 00-1.75 4.24 5.74 5.74 0 001.75 4.24z"></path><path d="M144.56 208.12l-8.21 18.43a6.54 6.54 0 00-.61 4.63 6 6 0 007.38 4.19 5.82 5.82 0 003.59-2.76l8.21-18.43a6.54 6.54 0 00.61-4.63 6.12 6.12 0 00-2.76-3.58 6 6 0 00-4.62-.61 5.79 5.79 0 00-3.59 2.76zM123.33 135.69l.35-50.79.1-14.44a6 6 0 00-12 0l-.35 50.79-.1 14.44a6 6 0 0012 0z"></path><path d="M117.22 142.06c18.28 6 36.84 11.05 55.12 17a6.05 6.05 0 007.38-4.19 6.13 6.13 0 00-4.19-7.38c-18.28-6-36.84-11-55.12-17a6 6 0 00-7.38 4.19 6.13 6.13 0 004.19 7.38z"></path></svg> 